<svg width="270" height="452" viewBox="0 0 270 452" fill="none" xmlns="http://www.w3.org/2000/svg">
<path d="M200.072 326.852C205.997 328.227 211.964 321.57 213.429 316.831C214.65 312.882 213.837 307.614 209.279 306.556C203.354 305.18 197.387 311.837 195.922 316.576C194.701 320.525 195.514 325.794 200.072 326.852V326.852ZM182.752 322.831C187.31 323.889 191.054 319.679 192.276 315.73C193.863 310.596 192.538 302.246 186.612 300.87C182.055 299.812 178.31 304.022 177.089 307.971C175.045 312.999 176.371 321.349 182.752 322.831V322.831ZM217.701 326.712C211.776 325.336 205.476 331.493 203.888 336.627C202.789 340.181 203.513 344.158 207.615 345.111C213.54 346.486 219.841 340.33 221.428 335.196C222.527 331.642 221.348 327.559 217.701 326.712V326.712ZM174.262 329.748C175.85 324.614 173.491 316.448 168.021 315.178C163.919 314.225 160.997 317.356 159.898 320.911C158.31 326.045 160.67 334.211 166.139 335.481C170.241 336.434 173.163 333.303 174.262 329.748ZM189.092 332.345C179.976 330.228 163.762 340.009 161.075 348.697C159.854 352.646 162.678 354.572 166.324 355.418C171.794 356.688 176.873 354.481 181.886 355.645C186.444 356.703 189.569 360.815 194.583 361.979C198.229 362.825 202.575 362.988 203.919 358.644C206.605 349.956 198.207 334.461 189.092 332.345V332.345Z" fill="#322E18"/>
<path d="M190.7 52.4261C196.625 53.8017 202.592 47.1448 204.057 42.4057C205.279 38.4565 204.465 33.1884 199.907 32.1302C193.982 30.7546 188.016 37.4115 186.55 42.1506C185.329 46.0998 186.142 51.3679 190.7 52.4261V52.4261ZM173.38 48.405C177.938 49.4632 181.683 45.2532 182.904 41.304C184.491 36.17 183.166 27.82 177.24 26.4444C172.683 25.3862 168.938 29.5961 167.717 33.5453C165.674 38.5735 166.999 46.9235 173.38 48.405V48.405ZM208.329 52.2863C202.404 50.9107 196.104 57.0669 194.516 62.2009C193.417 65.7551 194.141 69.7327 198.243 70.6851C204.168 72.0607 210.469 65.9045 212.056 60.7705C213.155 57.2163 211.976 53.1329 208.329 52.2863V52.2863ZM164.891 55.3227C166.478 50.1887 164.119 42.0219 158.649 40.7521C154.547 39.7998 151.625 42.9308 150.526 46.485C148.938 51.619 151.298 59.7858 156.767 61.0556C160.869 62.0079 163.791 58.8769 164.891 55.3227ZM179.72 57.919C170.604 55.8026 154.39 65.583 151.703 74.2712C150.482 78.2204 153.306 80.1459 156.952 80.9925C162.422 82.2623 167.501 80.0553 172.514 81.2193C177.072 82.2775 180.197 86.3892 185.211 87.5532C188.857 88.3998 193.203 88.5623 194.547 84.2182C197.233 75.5299 188.835 60.0354 179.72 57.919V57.919Z" fill="#322E18"/>
<path d="M190.635 179.665C196.56 181.041 202.527 174.384 203.992 169.645C205.213 165.696 204.4 160.428 199.842 159.369C193.917 157.994 187.95 164.651 186.485 169.39C185.264 173.339 186.077 178.607 190.635 179.665V179.665ZM173.315 175.644C177.873 176.702 181.617 172.492 182.839 168.543C184.426 163.409 183.1 155.059 177.175 153.684C172.617 152.625 168.873 156.835 167.652 160.785C165.608 165.813 166.934 174.163 173.315 175.644V175.644ZM208.264 179.526C202.339 178.15 196.039 184.306 194.451 189.44C193.352 192.994 194.076 196.972 198.178 197.924C204.103 199.3 210.403 193.144 211.991 188.01C213.09 184.455 211.91 180.372 208.264 179.526V179.526ZM164.825 182.562C166.413 177.428 164.053 169.261 158.584 167.991C154.482 167.039 151.56 170.17 150.461 173.724C148.873 178.858 151.232 187.025 156.702 188.295C160.804 189.247 163.726 186.116 164.825 182.562ZM179.654 185.158C170.539 183.042 154.325 192.822 151.638 201.51C150.417 205.46 153.241 207.385 156.887 208.232C162.356 209.501 167.435 207.294 172.449 208.458C177.007 209.517 180.132 213.628 185.145 214.792C188.792 215.639 193.138 215.801 194.481 211.457C197.168 202.769 188.77 187.275 179.654 185.158V185.158Z" fill="#322E18"/>
<path d="M122.64 251.353C128.565 249.977 129.891 241.627 128.425 236.888C127.204 232.939 123.46 228.729 118.902 229.787C112.977 231.163 111.651 239.513 113.117 244.252C114.338 248.201 118.082 252.411 122.64 251.353V251.353ZM105.32 255.374C109.878 254.316 110.692 249.047 109.47 245.098C107.883 239.964 101.916 233.307 95.9908 234.683C91.433 235.741 90.6196 241.009 91.8409 244.959C92.9727 250.198 98.9394 256.855 105.32 255.374V255.374ZM137.827 243.594C131.902 244.97 129.998 253.031 131.586 258.165C132.685 261.719 135.607 264.85 139.709 263.897C145.634 262.522 147.538 254.461 145.95 249.327C144.851 245.773 141.473 242.747 137.827 243.594V243.594ZM101.96 265.043C100.372 259.909 93.6161 253.858 88.1467 255.128C84.0447 256.081 83.3207 260.058 84.4198 263.612C86.0075 268.746 92.7636 274.797 98.2329 273.527C102.335 272.575 103.059 268.597 101.96 265.043ZM116.301 260.867C107.185 262.983 98.7869 278.478 101.474 287.166C102.695 291.115 106.252 291.559 109.898 290.713C115.367 289.443 118.492 285.331 123.506 284.167C128.064 283.109 133.143 285.316 138.156 284.152C141.803 283.305 145.66 281.563 144.317 277.219C141.63 268.531 125.416 258.75 116.301 260.867V260.867Z" fill="#322E18"/>
<path d="M101.792 118.511C107.717 117.135 109.043 108.785 107.577 104.046C106.356 100.097 102.612 95.8869 98.054 96.9451C92.1288 98.3208 90.803 106.671 92.2685 111.41C93.4898 115.359 97.2342 119.569 101.792 118.511V118.511ZM84.4723 122.532C89.0301 121.474 89.8435 116.206 88.6223 112.256C87.0346 107.122 81.068 100.465 75.1428 101.841C70.585 102.899 69.7716 108.167 70.9929 112.117C72.1247 117.356 78.0914 124.013 84.4723 122.532V122.532ZM116.979 110.752C111.054 112.128 109.15 120.189 110.738 125.323C111.837 128.877 114.759 132.008 118.861 131.056C124.786 129.68 126.69 121.619 125.102 116.485C124.003 112.931 120.625 109.906 116.979 110.752V110.752ZM81.1118 132.201C79.5242 127.067 72.7681 121.017 67.2987 122.286C63.1967 123.239 62.4727 127.216 63.5718 130.771C65.1595 135.905 71.9155 141.955 77.3849 140.685C81.487 139.733 82.2109 135.755 81.1118 132.201ZM95.4526 128.025C86.3369 130.141 77.9389 145.636 80.6257 154.324C81.8469 158.273 85.4038 158.717 89.05 157.871C94.5194 156.601 97.6444 152.489 102.658 151.325C107.216 150.267 112.295 152.474 117.308 151.31C120.955 150.463 124.812 148.721 123.469 144.377C120.782 135.689 104.568 125.908 95.4526 128.025V128.025Z" fill="#322E18"/>
<path d="M118.792 398.511C124.717 397.135 126.043 388.785 124.577 384.046C123.356 380.097 119.612 375.887 115.054 376.945C109.129 378.321 107.803 386.671 109.269 391.41C110.49 395.359 114.234 399.569 118.792 398.511V398.511ZM101.472 402.532C106.03 401.474 106.844 396.206 105.622 392.256C104.035 387.122 98.068 380.465 92.1428 381.841C87.585 382.899 86.7716 388.167 87.9929 392.117C89.1247 397.356 95.0914 404.013 101.472 402.532V402.532ZM133.979 390.752C128.054 392.128 126.15 400.189 127.738 405.323C128.837 408.877 131.759 412.008 135.861 411.056C141.786 409.68 143.69 401.619 142.102 396.485C141.003 392.931 137.625 389.906 133.979 390.752V390.752ZM98.1118 412.201C96.5242 407.067 89.7681 401.017 84.2987 402.286C80.1967 403.239 79.4727 407.216 80.5718 410.771C82.1595 415.904 88.9155 421.955 94.3849 420.685C98.487 419.733 99.2109 415.755 98.1118 412.201ZM112.453 408.025C103.337 410.141 94.9389 425.636 97.6257 434.324C98.8469 438.273 102.404 438.717 106.05 437.871C111.519 436.601 114.644 432.489 119.658 431.325C124.216 430.267 129.295 432.474 134.308 431.31C137.955 430.463 141.812 428.721 140.469 424.377C137.782 415.689 121.568 405.908 112.453 408.025V408.025Z" fill="#322E18"/>
</svg>
